<svg width="336" height="335" viewBox="0 0 336 335" fill="none" xmlns="http://www.w3.org/2000/svg">
<g filter="url(#filter0_d_121_1263)">
<path d="M168.218 228.624C142.851 228.624 119.003 218.746 101.066 200.809C83.1284 182.871 73.25 159.023 73.25 133.656C73.25 108.289 83.1284 84.4403 101.066 66.5031C119.003 48.5659 142.851 38.6875 168.218 38.6875C193.585 38.6875 217.434 48.5659 235.371 66.5031C253.308 84.4403 263.187 108.289 263.187 133.656C263.187 159.023 253.308 182.871 235.371 200.809C217.434 218.746 193.585 228.624 168.218 228.624Z" fill="url(#paint0_linear_121_1263)"/>
<path d="M168.221 42.9421C143.99 42.9421 121.209 52.3782 104.075 69.5122C86.9407 86.6462 77.5046 109.427 77.5046 133.658C77.5046 157.889 86.9407 180.67 104.075 197.804C121.209 214.938 143.99 224.374 168.221 224.374C192.452 224.374 215.233 214.938 232.367 197.804C249.501 180.67 258.937 157.889 258.937 133.658C258.937 109.427 249.501 86.6462 232.367 69.5122C215.233 52.3782 192.452 42.9421 168.221 42.9421ZM168.221 34.4375C223.019 34.4375 267.441 78.8601 267.441 133.658C267.441 188.456 223.019 232.879 168.221 232.879C113.423 232.879 69 188.456 69 133.658C69 78.8601 113.423 34.4375 168.221 34.4375Z" fill="white"/>
</g>
<path d="M166.522 91.125C170.395 91.1205 174.231 91.8801 177.81 93.3601C181.389 94.8402 184.641 97.0117 187.379 99.7503C190.118 102.489 192.289 105.741 193.769 109.32C195.249 112.899 196.009 116.735 196.005 120.608C196.005 142.72 166.522 175.344 166.522 175.344C166.522 175.344 137.039 142.72 137.039 120.608C137.035 116.735 137.794 112.899 139.274 109.32C140.754 105.741 142.926 102.489 145.664 99.7503C148.403 97.0117 151.655 94.8402 155.234 93.3601C158.813 91.8801 162.649 91.1205 166.522 91.125ZM166.522 131.125C168.604 131.124 170.64 130.505 172.371 129.347C174.102 128.189 175.45 126.544 176.246 124.619C177.042 122.694 177.249 120.577 176.841 118.535C176.433 116.492 175.429 114.617 173.955 113.145C172.481 111.674 170.604 110.673 168.561 110.268C166.518 109.864 164.401 110.074 162.478 110.873C160.554 111.672 158.911 113.023 157.756 114.756C156.601 116.489 155.985 118.525 155.987 120.608C155.99 123.399 157.102 126.075 159.077 128.047C161.053 130.02 163.73 131.127 166.522 131.125Z" fill="white"/>
<defs>
<filter id="filter0_d_121_1263" x="0.962944" y="0.418972" width="334.519" height="334.519" filterUnits="userSpaceOnUse" color-interpolation-filters="sRGB">
<feFlood flood-opacity="0" result="BackgroundImageFix"/>
<feColorMatrix in="SourceAlpha" type="matrix" values="0 0 0 0 0 0 0 0 0 0 0 0 0 0 0 0 0 0 127 0" result="hardAlpha"/>
<feOffset dy="34.0185"/>
<feGaussianBlur stdDeviation="34.0185"/>
<feColorMatrix type="matrix" values="0 0 0 0 0 0 0 0 0 0.768627 0 0 0 0 0.603922 0 0 0 0.102 0"/>
<feBlend mode="normal" in2="BackgroundImageFix" result="effect1_dropShadow_121_1263"/>
<feBlend mode="normal" in="SourceGraphic" in2="effect1_dropShadow_121_1263" result="shape"/>
</filter>
<linearGradient id="paint0_linear_121_1263" x1="168.218" y1="38.6875" x2="168.218" y2="228.624" gradientUnits="userSpaceOnUse">
<stop stop-color="#8EE4A5"/>
<stop offset="1" stop-color="#01A399"/>
</linearGradient>
</defs>
</svg>
