<svg width="336" height="336" viewBox="0 0 336 336" fill="none" xmlns="http://www.w3.org/2000/svg">
<g filter="url(#filter0_d_121_1255)">
<path d="M168.047 229.187C142.68 229.187 118.831 219.308 100.894 201.371C82.9565 183.434 73.0781 159.585 73.0781 134.218C73.0781 108.851 82.9565 85.0028 100.894 67.0656C118.831 49.1284 142.68 39.25 168.047 39.25C193.413 39.25 217.262 49.1284 235.199 67.0656C253.136 85.0028 263.015 108.851 263.015 134.218C263.015 159.585 253.136 183.434 235.199 201.371C217.262 219.308 193.413 229.187 168.047 229.187Z" fill="url(#paint0_linear_121_1255)"/>
<path d="M168.049 43.5046C143.818 43.5046 121.037 52.9407 103.903 70.0747C86.7689 87.2087 77.3328 109.99 77.3328 134.221C77.3328 158.452 86.7689 181.233 103.903 198.367C121.037 215.501 143.818 224.937 168.049 224.937C192.28 224.937 215.061 215.501 232.195 198.367C249.329 181.233 258.765 158.452 258.765 134.221C258.765 109.99 249.329 87.2087 232.195 70.0747C215.061 52.9407 192.28 43.5046 168.049 43.5046ZM168.049 35C222.847 35 267.27 79.4226 267.27 134.221C267.27 189.019 222.847 233.441 168.049 233.441C113.251 233.441 68.8281 189.019 68.8281 134.221C68.8281 79.4226 113.251 35 168.049 35Z" fill="white"/>
</g>
<path d="M195.245 134.94C195.178 134.676 195.155 134.402 195.177 134.129C195.188 133.939 195.211 133.75 195.245 133.562C195.155 133.776 195.108 134.005 195.109 134.237C195.126 134.476 195.172 134.712 195.245 134.94Z" fill="white"/>
<path d="M209.744 137.115H199.413C198.752 137.12 198.11 136.897 197.594 136.484C197.078 136.071 196.719 135.494 196.579 134.848C196.512 134.65 196.477 134.444 196.477 134.235C196.475 134.025 196.517 133.816 196.601 133.623C196.752 132.972 197.122 132.392 197.648 131.98C198.173 131.567 198.825 131.347 199.493 131.355H209.698C209.814 131.356 209.928 131.333 210.034 131.288C210.139 131.242 210.234 131.174 210.312 131.089C210.389 131.004 210.448 130.903 210.484 130.793C210.52 130.684 210.533 130.568 210.52 130.454C209.632 120.476 205.264 111.129 198.181 104.046C191.098 96.9629 181.751 92.5952 171.773 91.7064C171.659 91.6962 171.544 91.7098 171.435 91.7465C171.327 91.7831 171.227 91.842 171.142 91.9193C171.057 91.9966 170.989 92.0906 170.943 92.1955C170.896 92.3004 170.872 92.4138 170.872 92.5285V102.881C170.871 103.269 170.791 103.651 170.639 104.007C170.487 104.363 170.264 104.684 169.985 104.952C169.705 105.22 169.375 105.428 169.013 105.566C168.651 105.703 168.265 105.766 167.878 105.75C167.128 105.705 166.424 105.373 165.912 104.823C165.401 104.274 165.12 103.548 165.128 102.796V92.5455C165.13 92.4303 165.107 92.3161 165.061 92.2103C165.015 92.1046 164.947 92.0098 164.862 91.9322C164.777 91.8545 164.676 91.7958 164.567 91.7598C164.457 91.7238 164.342 91.7114 164.227 91.7234C154.25 92.6122 144.902 96.9799 137.819 104.063C130.736 111.146 126.369 120.493 125.48 130.471C125.47 130.585 125.483 130.7 125.52 130.809C125.557 130.917 125.615 131.017 125.693 131.102C125.77 131.187 125.864 131.255 125.969 131.301C126.074 131.348 126.187 131.372 126.302 131.372H136.678C137.065 131.373 137.447 131.452 137.803 131.605C138.159 131.757 138.48 131.98 138.748 132.259C139.016 132.539 139.225 132.869 139.362 133.231C139.499 133.593 139.562 133.979 139.547 134.366C139.501 135.116 139.17 135.82 138.62 136.331C138.07 136.843 137.344 137.124 136.593 137.115H126.342C126.226 137.114 126.112 137.137 126.006 137.183C125.901 137.229 125.806 137.297 125.728 137.382C125.651 137.467 125.592 137.568 125.556 137.677C125.52 137.786 125.508 137.902 125.52 138.017C126.408 147.994 130.776 157.342 137.859 164.425C144.942 171.508 154.289 175.875 164.267 176.764C164.381 176.774 164.496 176.761 164.605 176.724C164.713 176.687 164.813 176.629 164.898 176.551C164.983 176.474 165.051 176.38 165.097 176.275C165.144 176.17 165.168 176.057 165.168 175.942V165.617C165.169 165.23 165.249 164.848 165.401 164.492C165.553 164.136 165.776 163.815 166.056 163.547C166.335 163.279 166.665 163.07 167.027 162.933C167.389 162.796 167.775 162.733 168.162 162.748C168.912 162.794 169.616 163.125 170.128 163.675C170.639 164.225 170.92 164.951 170.912 165.702V175.908C170.91 176.023 170.933 176.137 170.979 176.243C171.025 176.349 171.093 176.444 171.178 176.521C171.263 176.599 171.364 176.658 171.473 176.694C171.583 176.73 171.698 176.742 171.813 176.73C181.79 175.841 191.138 171.474 198.221 164.391C205.304 157.308 209.671 147.96 210.56 137.983C210.566 137.872 210.55 137.76 210.512 137.656C210.473 137.551 210.414 137.455 210.338 137.374C210.262 137.293 210.17 137.228 210.067 137.184C209.965 137.139 209.855 137.116 209.744 137.115ZM168.043 148.597C165.205 148.597 162.43 147.755 160.07 146.178C157.71 144.601 155.871 142.36 154.785 139.738C153.699 137.116 153.415 134.231 153.968 131.447C154.522 128.663 155.889 126.106 157.896 124.099C159.903 122.093 162.459 120.726 165.243 120.172C168.027 119.618 170.912 119.903 173.534 120.989C176.156 122.075 178.398 123.914 179.974 126.274C181.551 128.634 182.393 131.408 182.393 134.247C182.394 136.131 182.024 137.998 181.304 139.74C180.583 141.482 179.526 143.064 178.193 144.397C176.86 145.73 175.278 146.787 173.536 147.507C171.794 148.228 169.928 148.598 168.043 148.597Z" fill="white"/>
<defs>
<filter id="filter0_d_121_1255" x="0.791069" y="0.981472" width="334.519" height="334.519" filterUnits="userSpaceOnUse" color-interpolation-filters="sRGB">
<feFlood flood-opacity="0" result="BackgroundImageFix"/>
<feColorMatrix in="SourceAlpha" type="matrix" values="0 0 0 0 0 0 0 0 0 0 0 0 0 0 0 0 0 0 127 0" result="hardAlpha"/>
<feOffset dy="34.0185"/>
<feGaussianBlur stdDeviation="34.0185"/>
<feColorMatrix type="matrix" values="0 0 0 0 0 0 0 0 0 0.768627 0 0 0 0 0.603922 0 0 0 0.102 0"/>
<feBlend mode="normal" in2="BackgroundImageFix" result="effect1_dropShadow_121_1255"/>
<feBlend mode="normal" in="SourceGraphic" in2="effect1_dropShadow_121_1255" result="shape"/>
</filter>
<linearGradient id="paint0_linear_121_1255" x1="168.047" y1="39.25" x2="168.047" y2="229.187" gradientUnits="userSpaceOnUse">
<stop stop-color="#8EE4A5"/>
<stop offset="1" stop-color="#01A399"/>
</linearGradient>
</defs>
</svg>
